<?xml version="1.0" encoding="utf-8"?>
<!-- Generated by Mocodo 4.2.1 -->
<svg width="462" height="356" viewBox="0 0 462 356" xmlns="http://www.w3.org/2000/svg">
<rect x="0" y="0" width="462" height="356" fill="#f7f7f7" stroke="none" stroke-width="0"/>

<!-- Association FAIT_PAR -->
<g>
	<line x1="287" y1="60" x2="167" y2="60" stroke="#4393c3" stroke-width="2"/>
	<line x1="167" y1="195" x2="167" y2="60" stroke="#4393c3" stroke-width="2"/>
	<g>
		<path d="M190 35 a14 14 90 0 1 14 14 V60 h-74 V49 a14 14 90 0 1 14 -14" fill="#92c5de" stroke="#92c5de" stroke-width="0"/>
		<path d="M204 60 v11 a14 14 90 0 1 -14 14 H144 a14 14 90 0 1 -14 -14 V60 H74" fill="#d1e5f0" stroke="#d1e5f0" stroke-width="0"/>
		<rect x="130" y="35" width="74" height="50" fill="none" rx="14" stroke="#4393c3" stroke-width="2"/>
		<line x1="130" y1="60" x2="204" y2="60" stroke="#4393c3" stroke-width="1"/>
		<text x="137" y="52.75" fill="#000000" font-family="Verdana" font-size="12">FAIT_PAR</text>
	</g>
	<text x="209" y="77" fill="#b2182b" font-family="Verdana" font-size="12">0,N</text>
	<text x="172" y="136" fill="#b2182b" font-family="Verdana" font-size="12">1,1</text>
</g>

<!-- Association SUIT -->
<g>
	<line x1="287" y1="60" x2="401" y2="60" stroke="#4393c3" stroke-width="2"/>
	<line x1="401" y1="195" x2="401" y2="60" stroke="#4393c3" stroke-width="2"/>
	<g>
		<path d="M409 35 a14 14 90 0 1 14 14 V60 h-44 V49 a14 14 90 0 1 14 -14" fill="#92c5de" stroke="#92c5de" stroke-width="0"/>
		<path d="M423 60 v11 a14 14 90 0 1 -14 14 H393 a14 14 90 0 1 -14 -14 V60 H44" fill="#d1e5f0" stroke="#d1e5f0" stroke-width="0"/>
		<rect x="379" y="35" width="44" height="50" fill="none" rx="14" stroke="#4393c3" stroke-width="2"/>
		<line x1="379" y1="60" x2="423" y2="60" stroke="#4393c3" stroke-width="1"/>
		<text x="386" y="52.75" fill="#000000" font-family="Verdana" font-size="12">SUIT</text>
	</g>
	<text x="343" y="77" fill="#b2182b" font-family="Verdana" font-size="12">0,N</text>
	<text x="406" y="128" fill="#b2182b" font-family="Verdana" font-size="12">0,N</text>
</g>

<!-- Association A_GENRE -->
<g>
	<line x1="167" y1="195" x2="53" y2="195" stroke="#4393c3" stroke-width="2"/>
	<line x1="53" y1="60" x2="53" y2="195" stroke="#4393c3" stroke-width="2"/>
	<g>
		<path d="M76 170 a14 14 90 0 1 14 14 V195 h-74 V184 a14 14 90 0 1 14 -14" fill="#92c5de" stroke="#92c5de" stroke-width="0"/>
		<path d="M90 195 v11 a14 14 90 0 1 -14 14 H30 a14 14 90 0 1 -14 -14 V195 H74" fill="#d1e5f0" stroke="#d1e5f0" stroke-width="0"/>
		<rect x="16" y="170" width="74" height="50" fill="none" rx="14" stroke="#4393c3" stroke-width="2"/>
		<line x1="16" y1="195" x2="90" y2="195" stroke="#4393c3" stroke-width="1"/>
		<text x="24" y="187.75" fill="#000000" font-family="Verdana" font-size="12">A_GENRE</text>
	</g>
	<text x="95" y="212" fill="#b2182b" font-family="Verdana" font-size="12">0,N</text>
	<text x="58" y="102" fill="#b2182b" font-family="Verdana" font-size="12">0,N</text>
</g>

<!-- Association NOTES -->
<g>
	<line x1="401" y1="195" x2="287" y2="195" stroke="#4393c3" stroke-width="2"/>
	<line x1="167" y1="195" x2="287" y2="195" stroke="#4393c3" stroke-width="2"/>
	<g>
		<path d="M302 170 a14 14 90 0 1 14 14 V195 h-58 V184 a14 14 90 0 1 14 -14" fill="#92c5de" stroke="#92c5de" stroke-width="0"/>
		<path d="M316 195 v11 a14 14 90 0 1 -14 14 H272 a14 14 90 0 1 -14 -14 V195 H58" fill="#d1e5f0" stroke="#d1e5f0" stroke-width="0"/>
		<rect x="258" y="170" width="58" height="50" fill="none" rx="14" stroke="#4393c3" stroke-width="2"/>
		<line x1="258" y1="195" x2="316" y2="195" stroke="#4393c3" stroke-width="1"/>
		<text x="266" y="187.75" fill="#000000" font-family="Verdana" font-size="12">NOTES</text>
		<text x="265" y="212.8" fill="#000000" font-family="Verdana" font-size="12">note</text>
	</g>
	<text x="322" y="212" fill="#b2182b" font-family="Verdana" font-size="12">0,N</text>
	<text x="217" y="212" fill="#b2182b" font-family="Verdana" font-size="12">0,N</text>
</g>

<!-- Association EST_DANS -->
<g>
	<line x1="287" y1="313" x2="167" y2="313" stroke="#4393c3" stroke-width="2"/>
	<line x1="167" y1="195" x2="167" y2="313" stroke="#4393c3" stroke-width="2"/>
	<g>
		<path d="M193 288 a14 14 90 0 1 14 14 V313 h-80 V302 a14 14 90 0 1 14 -14" fill="#92c5de" stroke="#92c5de" stroke-width="0"/>
		<path d="M207 313 v11 a14 14 90 0 1 -14 14 H141 a14 14 90 0 1 -14 -14 V313 H80" fill="#d1e5f0" stroke="#d1e5f0" stroke-width="0"/>
		<rect x="127" y="288" width="80" height="50" fill="none" rx="14" stroke="#4393c3" stroke-width="2"/>
		<line x1="127" y1="313" x2="207" y2="313" stroke="#4393c3" stroke-width="1"/>
		<text x="134" y="305.75" fill="#000000" font-family="Verdana" font-size="12">EST_DANS</text>
	</g>
	<text x="224" y="330" fill="#b2182b" font-family="Verdana" font-size="12">0,N</text>
	<text x="172" y="263" fill="#b2182b" font-family="Verdana" font-size="12">0,N</text>
</g>

<!-- Association APPARTIENT -->
<g>
	<line x1="287" y1="313" x2="401" y2="313" stroke="#4393c3" stroke-width="2"/>
	<line x1="401" y1="195" x2="401" y2="313" stroke="#4393c3" stroke-width="2"/>
	<g>
		<path d="M433 288 a14 14 90 0 1 14 14 V313 h-92 V302 a14 14 90 0 1 14 -14" fill="#92c5de" stroke="#92c5de" stroke-width="0"/>
		<path d="M447 313 v11 a14 14 90 0 1 -14 14 H369 a14 14 90 0 1 -14 -14 V313 H92" fill="#d1e5f0" stroke="#d1e5f0" stroke-width="0"/>
		<rect x="355" y="288" width="92" height="50" fill="none" rx="14" stroke="#4393c3" stroke-width="2"/>
		<line x1="355" y1="313" x2="447" y2="313" stroke="#4393c3" stroke-width="1"/>
		<text x="363" y="305.75" fill="#000000" font-family="Verdana" font-size="12">APPARTIENT</text>
	</g>
	<text x="328" y="330" fill="#b2182b" font-family="Verdana" font-size="12">1,1</text>
	<text x="406" y="271" fill="#b2182b" font-family="Verdana" font-size="12">0,N</text>
</g>

<!-- Entity GENRE -->
<g>
	<g>
		<rect x="9" y="35" width="88" height="25" fill="#f4a582" stroke="none" stroke-width="0" opacity="1"/>
		<rect x="9" y="60" width="88" height="25" fill="#fddbc7" stroke="none" stroke-width="0" opacity="1"/>
		<rect x="9" y="35" width="88" height="50" fill="none" stroke="#d6604d" stroke-width="2" opacity="1"/>
		<line x1="9" y1="60" x2="97" y2="60" stroke="#d6604d" stroke-width="1"/>
	</g>
	<text x="32" y="52.75" fill="#000000" font-family="Verdana" font-size="12">GENRE</text>
	<text x="14" y="77.8" fill="#000000" font-family="Verdana" font-size="12">libelle_genre</text>
	<line x1="14" y1="80" x2="92" y2="80" stroke="#000000" stroke-width="1"/>
</g>

<!-- Entity ARTISTES -->
<g>
	<g>
		<rect x="236" y="9" width="102" height="25" fill="#f4a582" stroke="none" stroke-width="0" opacity="1"/>
		<rect x="236" y="34" width="102" height="77" fill="#fddbc7" stroke="none" stroke-width="0" opacity="1"/>
		<rect x="236" y="9" width="102" height="102" fill="none" stroke="#d6604d" stroke-width="2" opacity="1"/>
		<line x1="236" y1="34" x2="338" y2="34" stroke="#d6604d" stroke-width="1"/>
	</g>
	<text x="257" y="26.75" fill="#000000" font-family="Verdana" font-size="12">ARTISTES</text>
	<text x="241" y="51.8" fill="#000000" font-family="Verdana" font-size="12">id_art</text>
	<line x1="241" y1="54" x2="277" y2="54" stroke="#000000" stroke-width="1"/>
	<text x="241" y="68.8" fill="#000000" font-family="Verdana" font-size="12">nom_de_scene</text>
	<text x="241" y="85.8" fill="#000000" font-family="Verdana" font-size="12">nom</text>
	<text x="241" y="102.8" fill="#000000" font-family="Verdana" font-size="12">prenom</text>
</g>

<!-- Entity ALBUMS -->
<g>
	<g>
		<rect x="122" y="144" width="90" height="25" fill="#f4a582" stroke="none" stroke-width="0" opacity="1"/>
		<rect x="122" y="169" width="90" height="77" fill="#fddbc7" stroke="none" stroke-width="0" opacity="1"/>
		<rect x="122" y="144" width="90" height="102" fill="none" stroke="#d6604d" stroke-width="2" opacity="1"/>
		<line x1="122" y1="169" x2="212" y2="169" stroke="#d6604d" stroke-width="1"/>
	</g>
	<text x="142" y="161.75" fill="#000000" font-family="Verdana" font-size="12">ALBUMS</text>
	<text x="127" y="186.8" fill="#000000" font-family="Verdana" font-size="12">id_album</text>
	<line x1="127" y1="189" x2="184" y2="189" stroke="#000000" stroke-width="1"/>
	<text x="127" y="203.8" fill="#000000" font-family="Verdana" font-size="12">title</text>
	<text x="127" y="220.8" fill="#000000" font-family="Verdana" font-size="12">release_date</text>
	<text x="127" y="237.8" fill="#000000" font-family="Verdana" font-size="12">img</text>
</g>

<!-- Entity UTILISATEURS -->
<g>
	<g>
		<rect x="349" y="136" width="104" height="25" fill="#f4a582" stroke="none" stroke-width="0" opacity="1"/>
		<rect x="349" y="161" width="104" height="93" fill="#fddbc7" stroke="none" stroke-width="0" opacity="1"/>
		<rect x="349" y="136" width="104" height="118" fill="none" stroke="#d6604d" stroke-width="2" opacity="1"/>
		<line x1="349" y1="161" x2="453" y2="161" stroke="#d6604d" stroke-width="1"/>
	</g>
	<text x="356" y="153.75" fill="#000000" font-family="Verdana" font-size="12">UTILISATEURS</text>
	<text x="354" y="178.8" fill="#000000" font-family="Verdana" font-size="12">email</text>
	<line x1="354" y1="181" x2="388" y2="181" stroke="#000000" stroke-width="1"/>
	<text x="354" y="195.8" fill="#000000" font-family="Verdana" font-size="12">nom</text>
	<text x="354" y="212.8" fill="#000000" font-family="Verdana" font-size="12">prenom</text>
	<text x="354" y="229.8" fill="#000000" font-family="Verdana" font-size="12">date_naissance</text>
	<text x="354" y="246.8" fill="#000000" font-family="Verdana" font-size="12">mdp</text>
</g>

<!-- Entity PLAYLIST -->
<g>
	<g>
		<rect x="251" y="279" width="72" height="25" fill="#f4a582" stroke="none" stroke-width="0" opacity="1"/>
		<rect x="251" y="304" width="72" height="43" fill="#fddbc7" stroke="none" stroke-width="0" opacity="1"/>
		<rect x="251" y="279" width="72" height="68" fill="none" stroke="#d6604d" stroke-width="2" opacity="1"/>
		<line x1="251" y1="304" x2="323" y2="304" stroke="#d6604d" stroke-width="1"/>
	</g>
	<text x="258" y="296.75" fill="#000000" font-family="Verdana" font-size="12">PLAYLIST</text>
	<text x="256" y="321.8" fill="#000000" font-family="Verdana" font-size="12">id_playlist</text>
	<line x1="256" y1="324" x2="318" y2="324" stroke="#000000" stroke-width="1"/>
	<text x="256" y="338.8" fill="#000000" font-family="Verdana" font-size="12">nom</text>
</g>
</svg>