<?xml version="1.0" encoding="utf-8"?>
<!-- Generated by Mocodo 4.2.1 -->
<svg width="477" height="347" viewBox="0 0 477 347" xmlns="http://www.w3.org/2000/svg">
<rect x="0" y="0" width="477" height="347" fill="#f5f5f5" stroke="none" stroke-width="0"/>

<!-- Association A_PLAYLIST -->
<g>
	<line x1="61" y1="68" x2="189" y2="68" stroke="#bf812d" stroke-width="2"/>
	<line x1="309" y1="68" x2="189" y2="68" stroke="#bf812d" stroke-width="2"/>
	<g>
		<path d="M219 43 a14 14 90 0 1 14 14 V68 h-88 V57 a14 14 90 0 1 14 -14" fill="#dfc27d" stroke="#dfc27d" stroke-width="0"/>
		<path d="M233 68 v11 a14 14 90 0 1 -14 14 H159 a14 14 90 0 1 -14 -14 V68 H88" fill="#f6e8c3" stroke="#f6e8c3" stroke-width="0"/>
		<rect x="145" y="43" width="88" height="50" fill="none" rx="14" stroke="#bf812d" stroke-width="2"/>
		<line x1="145" y1="68" x2="233" y2="68" stroke="#bf812d" stroke-width="1"/>
		<text x="152" y="60.75" fill="#000000" font-family="Verdana" font-size="12">A_PLAYLIST</text>
	</g>
	<text x="118" y="85" fill="#01665e" font-family="Verdana" font-size="12">0,N</text>
	<text x="247" y="85" fill="#01665e" font-family="Verdana" font-size="12">1,1</text>
</g>

<!-- Association EST_DANS -->
<g>
	<line x1="309" y1="68" x2="423" y2="68" stroke="#bf812d" stroke-width="2"/>
	<line x1="423" y1="203" x2="423" y2="68" stroke="#bf812d" stroke-width="2"/>
	<g>
		<path d="M449 43 a14 14 90 0 1 14 14 V68 h-80 V57 a14 14 90 0 1 14 -14" fill="#dfc27d" stroke="#dfc27d" stroke-width="0"/>
		<path d="M463 68 v11 a14 14 90 0 1 -14 14 H397 a14 14 90 0 1 -14 -14 V68 H80" fill="#f6e8c3" stroke="#f6e8c3" stroke-width="0"/>
		<rect x="383" y="43" width="80" height="50" fill="none" rx="14" stroke="#bf812d" stroke-width="2"/>
		<line x1="383" y1="68" x2="463" y2="68" stroke="#bf812d" stroke-width="1"/>
		<text x="390" y="60.75" fill="#000000" font-family="Verdana" font-size="12">EST_DANS</text>
	</g>
	<text x="350" y="85" fill="#01665e" font-family="Verdana" font-size="12">0,N</text>
	<text x="428" y="144" fill="#01665e" font-family="Verdana" font-size="12">0,N</text>
</g>

<!-- Association SUIT -->
<g>
	<line x1="189" y1="203" x2="61" y2="203" stroke="#bf812d" stroke-width="2"/>
	<line x1="61" y1="68" x2="61" y2="203" stroke="#bf812d" stroke-width="2"/>
	<g>
		<path d="M69 178 a14 14 90 0 1 14 14 V203 h-44 V192 a14 14 90 0 1 14 -14" fill="#dfc27d" stroke="#dfc27d" stroke-width="0"/>
		<path d="M83 203 v11 a14 14 90 0 1 -14 14 H53 a14 14 90 0 1 -14 -14 V203 H44" fill="#f6e8c3" stroke="#f6e8c3" stroke-width="0"/>
		<rect x="39" y="178" width="44" height="50" fill="none" rx="14" stroke="#bf812d" stroke-width="2"/>
		<line x1="39" y1="203" x2="83" y2="203" stroke="#bf812d" stroke-width="1"/>
		<text x="46" y="195.75" fill="#000000" font-family="Verdana" font-size="12">SUIT</text>
	</g>
	<text x="111" y="220" fill="#01665e" font-family="Verdana" font-size="12">0,N</text>
	<text x="66" y="144" fill="#01665e" font-family="Verdana" font-size="12">0,N</text>
</g>

<!-- Association FAIT_PAR -->
<g>
	<line x1="423" y1="203" x2="309" y2="203" stroke="#bf812d" stroke-width="2"/>
	<line x1="189" y1="203" x2="309" y2="203" stroke="#bf812d" stroke-width="2"/>
	<g>
		<path d="M332 178 a14 14 90 0 1 14 14 V203 h-74 V192 a14 14 90 0 1 14 -14" fill="#dfc27d" stroke="#dfc27d" stroke-width="0"/>
		<path d="M346 203 v11 a14 14 90 0 1 -14 14 H286 a14 14 90 0 1 -14 -14 V203 H74" fill="#f6e8c3" stroke="#f6e8c3" stroke-width="0"/>
		<rect x="272" y="178" width="74" height="50" fill="none" rx="14" stroke="#bf812d" stroke-width="2"/>
		<line x1="272" y1="203" x2="346" y2="203" stroke="#bf812d" stroke-width="1"/>
		<text x="279" y="195.75" fill="#000000" font-family="Verdana" font-size="12">FAIT_PAR</text>
	</g>
	<text x="351" y="220" fill="#01665e" font-family="Verdana" font-size="12">0,N</text>
	<text x="245" y="220" fill="#01665e" font-family="Verdana" font-size="12">1,1</text>
</g>

<!-- Association A_GENRE -->
<g>
	<line x1="423" y1="203" x2="423" y2="304" stroke="#bf812d" stroke-width="2"/>
	<line x1="309" y1="304" x2="423" y2="304" stroke="#bf812d" stroke-width="2"/>
	<g>
		<path d="M446 279 a14 14 90 0 1 14 14 V304 h-74 V293 a14 14 90 0 1 14 -14" fill="#dfc27d" stroke="#dfc27d" stroke-width="0"/>
		<path d="M460 304 v11 a14 14 90 0 1 -14 14 H400 a14 14 90 0 1 -14 -14 V304 H74" fill="#f6e8c3" stroke="#f6e8c3" stroke-width="0"/>
		<rect x="386" y="279" width="74" height="50" fill="none" rx="14" stroke="#bf812d" stroke-width="2"/>
		<line x1="386" y1="304" x2="460" y2="304" stroke="#bf812d" stroke-width="1"/>
		<text x="394" y="296.75" fill="#000000" font-family="Verdana" font-size="12">A_GENRE</text>
	</g>
	<text x="428" y="271" fill="#01665e" font-family="Verdana" font-size="12">1,N</text>
	<text x="346" y="321" fill="#01665e" font-family="Verdana" font-size="12">0,N</text>
</g>

<!-- Entity UTILISATEURS -->
<g>
	<g>
		<rect x="9" y="9" width="104" height="25" fill="#80cdc1" stroke="none" stroke-width="0" opacity="1"/>
		<rect x="9" y="34" width="104" height="93" fill="#c7eae5" stroke="none" stroke-width="0" opacity="1"/>
		<rect x="9" y="9" width="104" height="118" fill="none" stroke="#35978f" stroke-width="2" opacity="1"/>
		<line x1="9" y1="34" x2="113" y2="34" stroke="#35978f" stroke-width="1"/>
	</g>
	<text x="16" y="26.75" fill="#000000" font-family="Verdana" font-size="12">UTILISATEURS</text>
	<text x="14" y="51.8" fill="#000000" font-family="Verdana" font-size="12">id_user</text>
	<line x1="14" y1="54" x2="60" y2="54" stroke="#000000" stroke-width="1"/>
	<text x="14" y="68.8" fill="#000000" font-family="Verdana" font-size="12">nom</text>
	<text x="14" y="85.8" fill="#000000" font-family="Verdana" font-size="12">prenom</text>
	<text x="14" y="102.8" fill="#000000" font-family="Verdana" font-size="12">date_naissance</text>
	<text x="14" y="119.8" fill="#000000" font-family="Verdana" font-size="12">mdp</text>
</g>

<!-- Entity PLAYLIST -->
<g>
	<g>
		<rect x="273" y="34" width="72" height="25" fill="#80cdc1" stroke="none" stroke-width="0" opacity="1"/>
		<rect x="273" y="59" width="72" height="43" fill="#c7eae5" stroke="none" stroke-width="0" opacity="1"/>
		<rect x="273" y="34" width="72" height="68" fill="none" stroke="#35978f" stroke-width="2" opacity="1"/>
		<line x1="273" y1="59" x2="345" y2="59" stroke="#35978f" stroke-width="1"/>
	</g>
	<text x="280" y="51.75" fill="#000000" font-family="Verdana" font-size="12">PLAYLIST</text>
	<text x="278" y="76.8" fill="#000000" font-family="Verdana" font-size="12">id_playlist</text>
	<line x1="278" y1="79" x2="340" y2="79" stroke="#000000" stroke-width="1"/>
	<text x="278" y="93.8" fill="#000000" font-family="Verdana" font-size="12">nom</text>
</g>

<!-- Entity ARTISTES -->
<g>
	<g>
		<rect x="138" y="152" width="102" height="25" fill="#80cdc1" stroke="none" stroke-width="0" opacity="1"/>
		<rect x="138" y="177" width="102" height="77" fill="#c7eae5" stroke="none" stroke-width="0" opacity="1"/>
		<rect x="138" y="152" width="102" height="102" fill="none" stroke="#35978f" stroke-width="2" opacity="1"/>
		<line x1="138" y1="177" x2="240" y2="177" stroke="#35978f" stroke-width="1"/>
	</g>
	<text x="159" y="169.75" fill="#000000" font-family="Verdana" font-size="12">ARTISTES</text>
	<text x="143" y="194.8" fill="#000000" font-family="Verdana" font-size="12">id_art</text>
	<line x1="143" y1="197" x2="179" y2="197" stroke="#000000" stroke-width="1"/>
	<text x="143" y="211.8" fill="#000000" font-family="Verdana" font-size="12">nom_de_scene</text>
	<text x="143" y="228.8" fill="#000000" font-family="Verdana" font-size="12">nom</text>
	<text x="143" y="245.8" fill="#000000" font-family="Verdana" font-size="12">prenom</text>
</g>

<!-- Entity ALBUMS -->
<g>
	<g>
		<rect x="378" y="152" width="90" height="25" fill="#80cdc1" stroke="none" stroke-width="0" opacity="1"/>
		<rect x="378" y="177" width="90" height="77" fill="#c7eae5" stroke="none" stroke-width="0" opacity="1"/>
		<rect x="378" y="152" width="90" height="102" fill="none" stroke="#35978f" stroke-width="2" opacity="1"/>
		<line x1="378" y1="177" x2="468" y2="177" stroke="#35978f" stroke-width="1"/>
	</g>
	<text x="398" y="169.75" fill="#000000" font-family="Verdana" font-size="12">ALBUMS</text>
	<text x="383" y="194.8" fill="#000000" font-family="Verdana" font-size="12">id_album</text>
	<line x1="383" y1="197" x2="440" y2="197" stroke="#000000" stroke-width="1"/>
	<text x="383" y="211.8" fill="#000000" font-family="Verdana" font-size="12">title</text>
	<text x="383" y="228.8" fill="#000000" font-family="Verdana" font-size="12">release_date</text>
	<text x="383" y="245.8" fill="#000000" font-family="Verdana" font-size="12">img</text>
</g>

<!-- Entity GENRE -->
<g>
	<g>
		<rect x="277" y="270" width="64" height="25" fill="#80cdc1" stroke="none" stroke-width="0" opacity="1"/>
		<rect x="277" y="295" width="64" height="43" fill="#c7eae5" stroke="none" stroke-width="0" opacity="1"/>
		<rect x="277" y="270" width="64" height="68" fill="none" stroke="#35978f" stroke-width="2" opacity="1"/>
		<line x1="277" y1="295" x2="341" y2="295" stroke="#35978f" stroke-width="1"/>
	</g>
	<text x="288" y="287.75" fill="#000000" font-family="Verdana" font-size="12">GENRE</text>
	<text x="282" y="312.8" fill="#000000" font-family="Verdana" font-size="12">id_genre</text>
	<line x1="282" y1="315" x2="336" y2="315" stroke="#000000" stroke-width="1"/>
	<text x="282" y="329.8" fill="#000000" font-family="Verdana" font-size="12">libelle</text>
</g>
</svg>