<?xml version="1.0" encoding="utf-8"?>
<!-- Generated by Mocodo 4.2.1 -->
<svg width="355" height="339" viewBox="0 0 355 339" xmlns="http://www.w3.org/2000/svg">
<rect x="0" y="0" width="355" height="339" fill="#f5f5f5" stroke="none" stroke-width="0"/>

<!-- Association A_GENRE -->
<g>
	<line x1="54" y1="144" x2="54" y2="43" stroke="#bf812d" stroke-width="2"/>
	<line x1="174" y1="43" x2="54" y2="43" stroke="#bf812d" stroke-width="2"/>
	<g>
		<path d="M77 18 a14 14 90 0 1 14 14 V43 h-74 V32 a14 14 90 0 1 14 -14" fill="#dfc27d" stroke="#dfc27d" stroke-width="0"/>
		<path d="M91 43 v11 a14 14 90 0 1 -14 14 H31 a14 14 90 0 1 -14 -14 V43 H74" fill="#f6e8c3" stroke="#f6e8c3" stroke-width="0"/>
		<rect x="17" y="18" width="74" height="50" fill="none" rx="14" stroke="#bf812d" stroke-width="2"/>
		<line x1="17" y1="43" x2="91" y2="43" stroke="#bf812d" stroke-width="1"/>
		<text x="25" y="35.75" fill="#000000" font-family="Verdana" font-size="12">A_GENRE</text>
	</g>
	<text x="59" y="85" fill="#01665e" font-family="Verdana" font-size="12">1,N</text>
	<text x="115" y="60" fill="#01665e" font-family="Verdana" font-size="12">0,N</text>
</g>

<!-- Association PLAYLIST -->
<g>
	<line x1="294" y1="144" x2="174" y2="144" stroke="#bf812d" stroke-width="2"/>
	<line x1="54" y1="144" x2="174" y2="144" stroke="#bf812d" stroke-width="2"/>
	<g>
		<path d="M196 119 a14 14 90 0 1 14 14 V144 h-72 V133 a14 14 90 0 1 14 -14" fill="#dfc27d" stroke="#dfc27d" stroke-width="0"/>
		<path d="M210 144 v11 a14 14 90 0 1 -14 14 H152 a14 14 90 0 1 -14 -14 V144 H72" fill="#f6e8c3" stroke="#f6e8c3" stroke-width="0"/>
		<rect x="138" y="119" width="72" height="50" fill="none" rx="14" stroke="#bf812d" stroke-width="2"/>
		<line x1="138" y1="144" x2="210" y2="144" stroke="#bf812d" stroke-width="1"/>
		<text x="145" y="136.75" fill="#000000" font-family="Verdana" font-size="12">PLAYLIST</text>
	</g>
	<text x="215" y="161" fill="#01665e" font-family="Verdana" font-size="12">0,N</text>
	<text x="104" y="161" fill="#01665e" font-family="Verdana" font-size="12">0,N</text>
</g>

<!-- Association FAIT_PAR -->
<g>
	<line x1="54" y1="144" x2="54" y2="279" stroke="#bf812d" stroke-width="2"/>
	<line x1="174" y1="279" x2="54" y2="279" stroke="#bf812d" stroke-width="2"/>
	<g>
		<path d="M77 254 a14 14 90 0 1 14 14 V279 h-74 V268 a14 14 90 0 1 14 -14" fill="#dfc27d" stroke="#dfc27d" stroke-width="0"/>
		<path d="M91 279 v11 a14 14 90 0 1 -14 14 H31 a14 14 90 0 1 -14 -14 V279 H74" fill="#f6e8c3" stroke="#f6e8c3" stroke-width="0"/>
		<rect x="17" y="254" width="74" height="50" fill="none" rx="14" stroke="#bf812d" stroke-width="2"/>
		<line x1="17" y1="279" x2="91" y2="279" stroke="#bf812d" stroke-width="1"/>
		<text x="24" y="271.75" fill="#000000" font-family="Verdana" font-size="12">FAIT_PAR</text>
	</g>
	<text x="59" y="212" fill="#01665e" font-family="Verdana" font-size="12">1,1</text>
	<text x="96" y="296" fill="#01665e" font-family="Verdana" font-size="12">0,N</text>
</g>

<!-- Association SUIT -->
<g>
	<line x1="174" y1="279" x2="294" y2="279" stroke="#bf812d" stroke-width="2"/>
	<line x1="294" y1="144" x2="294" y2="279" stroke="#bf812d" stroke-width="2"/>
	<g>
		<path d="M302 254 a14 14 90 0 1 14 14 V279 h-44 V268 a14 14 90 0 1 14 -14" fill="#dfc27d" stroke="#dfc27d" stroke-width="0"/>
		<path d="M316 279 v11 a14 14 90 0 1 -14 14 H286 a14 14 90 0 1 -14 -14 V279 H44" fill="#f6e8c3" stroke="#f6e8c3" stroke-width="0"/>
		<rect x="272" y="254" width="44" height="50" fill="none" rx="14" stroke="#bf812d" stroke-width="2"/>
		<line x1="272" y1="279" x2="316" y2="279" stroke="#bf812d" stroke-width="1"/>
		<text x="279" y="271.75" fill="#000000" font-family="Verdana" font-size="12">SUIT</text>
	</g>
	<text x="230" y="296" fill="#01665e" font-family="Verdana" font-size="12">0,N</text>
	<text x="299" y="220" fill="#01665e" font-family="Verdana" font-size="12">0,N</text>
</g>

<!-- Entity GENRE -->
<g>
	<g>
		<rect x="142" y="9" width="64" height="25" fill="#80cdc1" stroke="none" stroke-width="0" opacity="1"/>
		<rect x="142" y="34" width="64" height="43" fill="#c7eae5" stroke="none" stroke-width="0" opacity="1"/>
		<rect x="142" y="9" width="64" height="68" fill="none" stroke="#35978f" stroke-width="2" opacity="1"/>
		<line x1="142" y1="34" x2="206" y2="34" stroke="#35978f" stroke-width="1"/>
	</g>
	<text x="153" y="26.75" fill="#000000" font-family="Verdana" font-size="12">GENRE</text>
	<text x="147" y="51.8" fill="#000000" font-family="Verdana" font-size="12">id_genre</text>
	<line x1="147" y1="54" x2="201" y2="54" stroke="#000000" stroke-width="1"/>
	<text x="147" y="68.8" fill="#000000" font-family="Verdana" font-size="12">libelle</text>
</g>

<!-- Entity ALBUMS -->
<g>
	<g>
		<rect x="9" y="93" width="90" height="25" fill="#80cdc1" stroke="none" stroke-width="0" opacity="1"/>
		<rect x="9" y="118" width="90" height="77" fill="#c7eae5" stroke="none" stroke-width="0" opacity="1"/>
		<rect x="9" y="93" width="90" height="102" fill="none" stroke="#35978f" stroke-width="2" opacity="1"/>
		<line x1="9" y1="118" x2="99" y2="118" stroke="#35978f" stroke-width="1"/>
	</g>
	<text x="29" y="110.75" fill="#000000" font-family="Verdana" font-size="12">ALBUMS</text>
	<text x="14" y="135.8" fill="#000000" font-family="Verdana" font-size="12">id_album</text>
	<line x1="14" y1="138" x2="71" y2="138" stroke="#000000" stroke-width="1"/>
	<text x="14" y="152.8" fill="#000000" font-family="Verdana" font-size="12">title</text>
	<text x="14" y="169.8" fill="#000000" font-family="Verdana" font-size="12">release_date</text>
	<text x="14" y="186.8" fill="#000000" font-family="Verdana" font-size="12">img</text>
</g>

<!-- Entity UTILISATEURS -->
<g>
	<g>
		<rect x="242" y="85" width="104" height="25" fill="#80cdc1" stroke="none" stroke-width="0" opacity="1"/>
		<rect x="242" y="110" width="104" height="93" fill="#c7eae5" stroke="none" stroke-width="0" opacity="1"/>
		<rect x="242" y="85" width="104" height="118" fill="none" stroke="#35978f" stroke-width="2" opacity="1"/>
		<line x1="242" y1="110" x2="346" y2="110" stroke="#35978f" stroke-width="1"/>
	</g>
	<text x="249" y="102.75" fill="#000000" font-family="Verdana" font-size="12">UTILISATEURS</text>
	<text x="247" y="127.8" fill="#000000" font-family="Verdana" font-size="12">id_user</text>
	<line x1="247" y1="130" x2="293" y2="130" stroke="#000000" stroke-width="1"/>
	<text x="247" y="144.8" fill="#000000" font-family="Verdana" font-size="12">nom</text>
	<text x="247" y="161.8" fill="#000000" font-family="Verdana" font-size="12">prenom</text>
	<text x="247" y="178.8" fill="#000000" font-family="Verdana" font-size="12">date_naissance</text>
	<text x="247" y="195.8" fill="#000000" font-family="Verdana" font-size="12">mdp</text>
</g>

<!-- Entity ARTISTES -->
<g>
	<g>
		<rect x="123" y="228" width="102" height="25" fill="#80cdc1" stroke="none" stroke-width="0" opacity="1"/>
		<rect x="123" y="253" width="102" height="77" fill="#c7eae5" stroke="none" stroke-width="0" opacity="1"/>
		<rect x="123" y="228" width="102" height="102" fill="none" stroke="#35978f" stroke-width="2" opacity="1"/>
		<line x1="123" y1="253" x2="225" y2="253" stroke="#35978f" stroke-width="1"/>
	</g>
	<text x="144" y="245.75" fill="#000000" font-family="Verdana" font-size="12">ARTISTES</text>
	<text x="128" y="270.8" fill="#000000" font-family="Verdana" font-size="12">id_art</text>
	<line x1="128" y1="273" x2="164" y2="273" stroke="#000000" stroke-width="1"/>
	<text x="128" y="287.8" fill="#000000" font-family="Verdana" font-size="12">nom_de_scene</text>
	<text x="128" y="304.8" fill="#000000" font-family="Verdana" font-size="12">nom</text>
	<text x="128" y="321.8" fill="#000000" font-family="Verdana" font-size="12">prenom</text>
</g>
</svg>