<?xml version="1.0" encoding="utf-8"?>
<!-- Generated by Mocodo 4.2.1 -->
<svg width="474" height="338" viewBox="0 0 474 338" xmlns="http://www.w3.org/2000/svg">
<rect x="0" y="0" width="474" height="338" fill="#ffffff" stroke="none" stroke-width="0"/>

<!-- Association FAIT_PAR -->
<g>
	<line x1="61" y1="60" x2="191" y2="60" stroke="#d6604d" stroke-width="2"/>
	<line x1="305" y1="60" x2="191" y2="60" stroke="#d6604d" stroke-width="2"/>
	<g>
		<path d="M214 35 a14 14 90 0 1 14 14 V60 h-74 V49 a14 14 90 0 1 14 -14" fill="#f4a582" stroke="#f4a582" stroke-width="0"/>
		<path d="M228 60 v11 a14 14 90 0 1 -14 14 H168 a14 14 90 0 1 -14 -14 V60 H74" fill="#fddbc7" stroke="#fddbc7" stroke-width="0"/>
		<rect x="154" y="35" width="74" height="50" fill="none" rx="14" stroke="#d6604d" stroke-width="2"/>
		<line x1="154" y1="60" x2="228" y2="60" stroke="#d6604d" stroke-width="1"/>
		<text x="161" y="52.75" fill="#000000" font-family="Verdana" font-size="12">FAIT_PAR</text>
	</g>
	<text x="117" y="77" fill="#4d4d4d" font-family="Verdana" font-size="12">0,N</text>
	<text x="234" y="77" fill="#4d4d4d" font-family="Verdana" font-size="12">1,1</text>
</g>

<!-- Association A_GENRE -->
<g>
	<line x1="305" y1="60" x2="421" y2="60" stroke="#d6604d" stroke-width="2"/>
	<line x1="421" y1="161" x2="421" y2="60" stroke="#d6604d" stroke-width="2"/>
	<g>
		<path d="M444 35 a14 14 90 0 1 14 14 V60 h-74 V49 a14 14 90 0 1 14 -14" fill="#f4a582" stroke="#f4a582" stroke-width="0"/>
		<path d="M458 60 v11 a14 14 90 0 1 -14 14 H398 a14 14 90 0 1 -14 -14 V60 H74" fill="#fddbc7" stroke="#fddbc7" stroke-width="0"/>
		<rect x="384" y="35" width="74" height="50" fill="none" rx="14" stroke="#d6604d" stroke-width="2"/>
		<line x1="384" y1="60" x2="458" y2="60" stroke="#d6604d" stroke-width="1"/>
		<text x="392" y="52.75" fill="#000000" font-family="Verdana" font-size="12">A_GENRE</text>
	</g>
	<text x="355" y="77" fill="#4d4d4d" font-family="Verdana" font-size="12">0,N</text>
	<text x="426" y="128" fill="#4d4d4d" font-family="Verdana" font-size="12">0,N</text>
</g>

<!-- Association SUIT -->
<g>
	<line x1="61" y1="60" x2="61" y2="161" stroke="#d6604d" stroke-width="2"/>
	<line x1="61" y1="270" x2="61" y2="161" stroke="#d6604d" stroke-width="2"/>
	<g>
		<path d="M69 136 a14 14 90 0 1 14 14 V161 h-44 V150 a14 14 90 0 1 14 -14" fill="#f4a582" stroke="#f4a582" stroke-width="0"/>
		<path d="M83 161 v11 a14 14 90 0 1 -14 14 H53 a14 14 90 0 1 -14 -14 V161 H44" fill="#fddbc7" stroke="#fddbc7" stroke-width="0"/>
		<rect x="39" y="136" width="44" height="50" fill="none" rx="14" stroke="#d6604d" stroke-width="2"/>
		<line x1="39" y1="161" x2="83" y2="161" stroke="#d6604d" stroke-width="1"/>
		<text x="46" y="153.75" fill="#000000" font-family="Verdana" font-size="12">SUIT</text>
	</g>
	<text x="66" y="128" fill="#4d4d4d" font-family="Verdana" font-size="12">0,N</text>
	<text x="66" y="203" fill="#4d4d4d" font-family="Verdana" font-size="12">0,N</text>
</g>

<!-- Association EST_DANS -->
<g>
	<line x1="191" y1="161" x2="305" y2="161" stroke="#d6604d" stroke-width="2"/>
	<line x1="305" y1="60" x2="305" y2="161" stroke="#d6604d" stroke-width="2"/>
	<g>
		<path d="M331 136 a14 14 90 0 1 14 14 V161 h-80 V150 a14 14 90 0 1 14 -14" fill="#f4a582" stroke="#f4a582" stroke-width="0"/>
		<path d="M345 161 v11 a14 14 90 0 1 -14 14 H279 a14 14 90 0 1 -14 -14 V161 H80" fill="#fddbc7" stroke="#fddbc7" stroke-width="0"/>
		<rect x="265" y="136" width="80" height="50" fill="none" rx="14" stroke="#d6604d" stroke-width="2"/>
		<line x1="265" y1="161" x2="345" y2="161" stroke="#d6604d" stroke-width="1"/>
		<text x="272" y="153.75" fill="#000000" font-family="Verdana" font-size="12">EST_DANS</text>
	</g>
	<text x="232" y="178" fill="#4d4d4d" font-family="Verdana" font-size="12">0,N</text>
	<text x="310" y="128" fill="#4d4d4d" font-family="Verdana" font-size="12">0,N</text>
</g>

<!-- Association APPARTIENT -->
<g>
	<line x1="191" y1="161" x2="191" y2="270" stroke="#d6604d" stroke-width="2"/>
	<line x1="61" y1="270" x2="191" y2="270" stroke="#d6604d" stroke-width="2"/>
	<g>
		<path d="M223 245 a14 14 90 0 1 14 14 V270 h-92 V259 a14 14 90 0 1 14 -14" fill="#f4a582" stroke="#f4a582" stroke-width="0"/>
		<path d="M237 270 v11 a14 14 90 0 1 -14 14 H159 a14 14 90 0 1 -14 -14 V270 H92" fill="#fddbc7" stroke="#fddbc7" stroke-width="0"/>
		<rect x="145" y="245" width="92" height="50" fill="none" rx="14" stroke="#d6604d" stroke-width="2"/>
		<line x1="145" y1="270" x2="237" y2="270" stroke="#d6604d" stroke-width="1"/>
		<text x="153" y="262.75" fill="#000000" font-family="Verdana" font-size="12">APPARTIENT</text>
	</g>
	<text x="196" y="212" fill="#4d4d4d" font-family="Verdana" font-size="12">1,1</text>
	<text x="118" y="287" fill="#4d4d4d" font-family="Verdana" font-size="12">0,N</text>
</g>

<!-- Entity ARTISTES -->
<g>
	<g>
		<rect x="10" y="9" width="102" height="25" fill="#bababa" stroke="none" stroke-width="0" opacity="1"/>
		<rect x="10" y="34" width="102" height="77" fill="#e0e0e0" stroke="none" stroke-width="0" opacity="1"/>
		<rect x="10" y="9" width="102" height="102" fill="none" stroke="#878787" stroke-width="2" opacity="1"/>
		<line x1="10" y1="34" x2="112" y2="34" stroke="#878787" stroke-width="1"/>
	</g>
	<text x="31" y="26.75" fill="#000000" font-family="Verdana" font-size="12">ARTISTES</text>
	<text x="15" y="51.8" fill="#000000" font-family="Verdana" font-size="12">id_art</text>
	<line x1="15" y1="54" x2="51" y2="54" stroke="#000000" stroke-width="1"/>
	<text x="15" y="68.8" fill="#000000" font-family="Verdana" font-size="12">nom_de_scene</text>
	<text x="15" y="85.8" fill="#000000" font-family="Verdana" font-size="12">nom</text>
	<text x="15" y="102.8" fill="#000000" font-family="Verdana" font-size="12">prenom</text>
</g>

<!-- Entity ALBUMS -->
<g>
	<g>
		<rect x="260" y="9" width="90" height="25" fill="#bababa" stroke="none" stroke-width="0" opacity="1"/>
		<rect x="260" y="34" width="90" height="77" fill="#e0e0e0" stroke="none" stroke-width="0" opacity="1"/>
		<rect x="260" y="9" width="90" height="102" fill="none" stroke="#878787" stroke-width="2" opacity="1"/>
		<line x1="260" y1="34" x2="350" y2="34" stroke="#878787" stroke-width="1"/>
	</g>
	<text x="280" y="26.75" fill="#000000" font-family="Verdana" font-size="12">ALBUMS</text>
	<text x="265" y="51.8" fill="#000000" font-family="Verdana" font-size="12">id_album</text>
	<line x1="265" y1="54" x2="322" y2="54" stroke="#000000" stroke-width="1"/>
	<text x="265" y="68.8" fill="#000000" font-family="Verdana" font-size="12">title</text>
	<text x="265" y="85.8" fill="#000000" font-family="Verdana" font-size="12">release_date</text>
	<text x="265" y="102.8" fill="#000000" font-family="Verdana" font-size="12">img</text>
</g>

<!-- Entity PLAYLIST -->
<g>
	<g>
		<rect x="155" y="127" width="72" height="25" fill="#bababa" stroke="none" stroke-width="0" opacity="1"/>
		<rect x="155" y="152" width="72" height="43" fill="#e0e0e0" stroke="none" stroke-width="0" opacity="1"/>
		<rect x="155" y="127" width="72" height="68" fill="none" stroke="#878787" stroke-width="2" opacity="1"/>
		<line x1="155" y1="152" x2="227" y2="152" stroke="#878787" stroke-width="1"/>
	</g>
	<text x="162" y="144.75" fill="#000000" font-family="Verdana" font-size="12">PLAYLIST</text>
	<text x="160" y="169.8" fill="#000000" font-family="Verdana" font-size="12">id_playlist</text>
	<line x1="160" y1="172" x2="222" y2="172" stroke="#000000" stroke-width="1"/>
	<text x="160" y="186.8" fill="#000000" font-family="Verdana" font-size="12">nom</text>
</g>

<!-- Entity GENRE -->
<g>
	<g>
		<rect x="377" y="136" width="88" height="25" fill="#bababa" stroke="none" stroke-width="0" opacity="1"/>
		<rect x="377" y="161" width="88" height="25" fill="#e0e0e0" stroke="none" stroke-width="0" opacity="1"/>
		<rect x="377" y="136" width="88" height="50" fill="none" stroke="#878787" stroke-width="2" opacity="1"/>
		<line x1="377" y1="161" x2="465" y2="161" stroke="#878787" stroke-width="1"/>
	</g>
	<text x="400" y="153.75" fill="#000000" font-family="Verdana" font-size="12">GENRE</text>
	<text x="382" y="178.8" fill="#000000" font-family="Verdana" font-size="12">libelle_genre</text>
	<line x1="382" y1="181" x2="460" y2="181" stroke="#000000" stroke-width="1"/>
</g>

<!-- Entity UTILISATEURS -->
<g>
	<g>
		<rect x="9" y="211" width="104" height="25" fill="#bababa" stroke="none" stroke-width="0" opacity="1"/>
		<rect x="9" y="236" width="104" height="93" fill="#e0e0e0" stroke="none" stroke-width="0" opacity="1"/>
		<rect x="9" y="211" width="104" height="118" fill="none" stroke="#878787" stroke-width="2" opacity="1"/>
		<line x1="9" y1="236" x2="113" y2="236" stroke="#878787" stroke-width="1"/>
	</g>
	<text x="16" y="228.75" fill="#000000" font-family="Verdana" font-size="12">UTILISATEURS</text>
	<text x="14" y="253.8" fill="#000000" font-family="Verdana" font-size="12">email</text>
	<line x1="14" y1="256" x2="48" y2="256" stroke="#000000" stroke-width="1"/>
	<text x="14" y="270.8" fill="#000000" font-family="Verdana" font-size="12">nom</text>
	<text x="14" y="287.8" fill="#000000" font-family="Verdana" font-size="12">prenom</text>
	<text x="14" y="304.8" fill="#000000" font-family="Verdana" font-size="12">date_naissance</text>
	<text x="14" y="321.8" fill="#000000" font-family="Verdana" font-size="12">mdp</text>
</g>
</svg>